{
    "asset" : {
        "generator" : "Khronos glTF Blender I/O v1.7.33",
        "version" : "2.0"
    },
    "scene" : 0,
    "scenes" : [
        {
            "name" : "Scene",
            "nodes" : [
                0
            ]
        }
    ],
    "nodes" : [
        {
            "mesh" : 0,
            "name" : "Object_20",
            "rotation" : [
                0,
                -1,
                0,
                -4.371138828673793e-08
            ]
        }
    ],
    "materials" : [
        {
            "doubleSided" : true,
            "name" : "shellquest2ControllerMAT",
            "pbrMetallicRoughness" : {
                "baseColorTexture" : {
                    "index" : 0
                },
                "metallicFactor" : 0,
                "metallicRoughnessTexture" : {
                    "index" : 1
                }
            }
        }
    ],
    "meshes" : [
        {
            "name" : "left quest 2 controller lowpoly_shell:quest2ControllerMAT_0",
            "primitives" : [
                {
                    "attributes" : {
                        "POSITION" : 0,
                        "NORMAL" : 1,
                        "TEXCOORD_0" : 2,
                        "TEXCOORD_1" : 3
                    },
                    "indices" : 4,
                    "material" : 0
                }
            ]
        }
    ],
    "textures" : [
        {
            "sampler" : 0,
            "source" : 0
        },
        {
            "sampler" : 0,
            "source" : 1
        }
    ],
    "images" : [
        {
            "bufferView" : 5,
            "mimeType" : "image/png",
            "name" : "shellquest2ControllerMAT_baseColor"
        },
        {
            "bufferView" : 6,
            "mimeType" : "image/png",
            "name" : "shellquest2ControllerMAT_metallicRoughness"
        }
    ],
    "accessors" : [
        {
            "bufferView" : 0,
            "componentType" : 5126,
            "count" : 2167,
            "max" : [
                0.437412828207016,
                0.6427187323570251,
                0.4944380521774292
            ],
            "min" : [
                -0.4971192479133606,
                -0.6727765202522278,
                -0.6655611991882324
            ],
            "type" : "VEC3"
        },
        {
            "bufferView" : 1,
            "componentType" : 5126,
            "count" : 2167,
            "type" : "VEC3"
        },
        {
            "bufferView" : 2,
            "componentType" : 5126,
            "count" : 2167,
            "type" : "VEC2"
        },
        {
            "bufferView" : 3,
            "componentType" : 5126,
            "count" : 2167,
            "type" : "VEC2"
        },
        {
            "bufferView" : 4,
            "componentType" : 5123,
            "count" : 7653,
            "type" : "SCALAR"
        }
    ],
    "bufferViews" : [
        {
            "buffer" : 0,
            "byteLength" : 26004,
            "byteOffset" : 0
        },
        {
            "buffer" : 0,
            "byteLength" : 26004,
            "byteOffset" : 26004
        },
        {
            "buffer" : 0,
            "byteLength" : 17336,
            "byteOffset" : 52008
        },
        {
            "buffer" : 0,
            "byteLength" : 17336,
            "byteOffset" : 69344
        },
        {
            "buffer" : 0,
            "byteLength" : 15306,
            "byteOffset" : 86680
        },
        {
            "buffer" : 0,
            "byteLength" : 170531,
            "byteOffset" : 101988
        },
        {
            "buffer" : 0,
            "byteLength" : 74781,
            "byteOffset" : 272520
        }
    ],
    "samplers" : [
        {
            "magFilter" : 9729,
            "minFilter" : 9987
        }
    ],
    "buffers" : [
        {
            "byteLength" : 347304,
            "uri" : "data:application/octet-stream;base64,"
        }
    ]
}
